<?xml version="1.0" encoding="UTF-8"?>
<svg width="400" height="300" viewBox="0 0 400 300" fill="none" xmlns="http://www.w3.org/2000/svg">
    <!-- 鱼缸玻璃 -->
    <rect x="20" y="20" width="360" height="260" rx="10" fill="#E3F2FD" stroke="#90CAF9" stroke-width="4"/>
    
    <!-- 水面波纹 -->
    <path d="M20 40 Q120 30 200 40 T380 40" stroke="#90CAF9" stroke-width="2" fill="none"/>
    <path d="M20 50 Q120 40 200 50 T380 50" stroke="#90CAF9" stroke-width="2" fill="none"/>
    
    <!-- 气泡 -->
    <circle cx="80" cy="150" r="4" fill="#90CAF9" opacity="0.6">
        <animate attributeName="cy" from="150" to="60" dur="2s" repeatCount="indefinite"/>
        <animate attributeName="opacity" from="0.6" to="0" dur="2s" repeatCount="indefinite"/>
    </circle>
    <circle cx="320" cy="180" r="3" fill="#90CAF9" opacity="0.6">
        <animate attributeName="cy" from="180" to="60" dur="1.5s" repeatCount="indefinite"/>
        <animate attributeName="opacity" from="0.6" to="0" dur="1.5s" repeatCount="indefinite"/>
    </circle>
    <circle cx="200" cy="160" r="3" fill="#90CAF9" opacity="0.6">
        <animate attributeName="cy" from="160" to="50" dur="2.2s" repeatCount="indefinite"/>
        <animate attributeName="opacity" from="0.6" to="0" dur="2.2s" repeatCount="indefinite"/>
    </circle>
    
    <!-- 装饰植物 -->
    <path d="M50 280 Q60 220 70 280 M60 280 L60 220" stroke="#4CAF50" stroke-width="2"/>
    <path d="M350 280 Q340 210 330 280 M340 280 L340 210" stroke="#4CAF50" stroke-width="2"/>
    <path d="M200 280 Q210 230 220 280 M210 280 L210 230" stroke="#4CAF50" stroke-width="2"/>
    
    <!-- 小鱼 -->
    <g>
        <path d="M160 150 L180 140 L180 160 Z" fill="#FF9800"/>
        <circle cx="170" cy="150" r="10" fill="#FF9800"/>
        <animate attributeName="transform" type="translate" values="0,0; 40,0; 0,0" dur="3s" repeatCount="indefinite"/>
    </g>
    <g transform="translate(100, 50)">
        <path d="M160 150 L180 140 L180 160 Z" fill="#FF9800" opacity="0.8"/>
        <circle cx="170" cy="150" r="8" fill="#FF9800" opacity="0.8"/>
        <animate attributeName="transform" type="translate" values="0,0; -30,10; 0,0" dur="4s" repeatCount="indefinite"/>
    </g>
</svg>
